{
  "accessors": [
    {
      "bufferView": 2,
      "componentType": 5126,
      "count": 2262,
      "max": [
        0.7557393312454224,
        0.09801306575536728,
        0.16891610622406006
      ],
      "min": [
        -0.7558879852294922,
        -0.09801933914422989,
        -0.6690389513969421
      ],
      "type": "VEC3"
    },
    {
      "bufferView": 2,
      "byteOffset": 27144,
      "componentType": 5126,
      "count": 2262,
      "max": [
        1.0,
        1.0,
        1.0
      ],
      "min": [
        -1.0,
        -1.0,
        -1.0
      ],
      "type": "VEC3"
    },
    {
      "bufferView": 3,
      "componentType": 5126,
      "count": 2262,
      "max": [
        1.0,
        0.9999997615814209,
        1.0,
        1.0
      ],
      "min": [
        -1.0,
        -1.0,
        -1.0,
        1.0
      ],
      "type": "VEC4"
    },
    {
      "bufferView": 1,
      "componentType": 5126,
      "count": 2262,
      "max": [
        0.9857683777809143,
        0.9979690909385681
      ],
      "min": [
        0.001953125,
        0.001953125
      ],
      "type": "VEC2"
    },
    {
      "bufferView": 1,
      "byteOffset": 18096,
      "componentType": 5126,
      "count": 2262,
      "max": [
        0.9857683777809143,
        0.9979690909385681
      ],
      "min": [
        0.001953125,
        0.001953125
      ],
      "type": "VEC2"
    },
    {
      "bufferView": 1,
      "byteOffset": 36192,
      "componentType": 5126,
      "count": 2262,
      "max": [
        0.9857683777809143,
        0.9979690909385681
      ],
      "min": [
        0.001953125,
        0.001953125
      ],
      "type": "VEC2"
    },
    {
      "bufferView": 0,
      "componentType": 5125,
      "count": 5844,
      "type": "SCALAR"
    },
    {
      "bufferView": 2,
      "byteOffset": 54288,
      "componentType": 5126,
      "count": 24,
      "max": [
        0.12537777423858643,
        0.03315510228276253,
        0.08872419595718384
      ],
      "min": [
        -0.12537777423858643,
        -0.033155106008052826,
        -0.08872425556182861
      ],
      "type": "VEC3"
    },
    {
      "bufferView": 2,
      "byteOffset": 54576,
      "componentType": 5126,
      "count": 24,
      "max": [
        1.0,
        0.9396927356719971,
        0.9396917819976807
      ],
      "min": [
        -1.0,
        -0.9396927356719971,
        -0.9396920800209045
      ],
      "type": "VEC3"
    },
    {
      "bufferView": 3,
      "byteOffset": 36192,
      "componentType": 5126,
      "count": 24,
      "max": [
        6.462678356911056e-06,
        0.9396925568580627,
        0.34202247858047485,
        1.0
      ],
      "min": [
        -2.0949472911979683e-07,
        -0.9397051930427551,
        -0.9396927356719971,
        1.0
      ],
      "type": "VEC4"
    },
    {
      "bufferView": 1,
      "byteOffset": 54288,
      "componentType": 5126,
      "count": 24,
      "max": [
        0.7625856399536133,
        0.9227067828178406
      ],
      "min": [
        0.6089946031570435,
        0.001953125
      ],
      "type": "VEC2"
    },
    {
      "bufferView": 1,
      "byteOffset": 54480,
      "componentType": 5126,
      "count": 24,
      "max": [
        0.7625856399536133,
        0.9227067828178406
      ],
      "min": [
        0.6089946031570435,
        0.001953125
      ],
      "type": "VEC2"
    },
    {
      "bufferView": 1,
      "byteOffset": 54672,
      "componentType": 5126,
      "count": 24,
      "max": [
        0.7625856399536133,
        0.9227067828178406
      ],
      "min": [
        0.6089946031570435,
        0.001953125
      ],
      "type": "VEC2"
    },
    {
      "bufferView": 0,
      "byteOffset": 23376,
      "componentType": 5125,
      "count": 36,
      "type": "SCALAR"
    },
    {
      "bufferView": 2,
      "byteOffset": 54864,
      "componentType": 5126,
      "count": 970,
      "max": [
        0.14075538516044617,
        0.11103210598230362,
        0.3255767226219177
      ],
      "min": [
        -0.1409233808517456,
        -0.08495070785284042,
        -0.6834762692451477
      ],
      "type": "VEC3"
    },
    {
      "bufferView": 2,
      "byteOffset": 66504,
      "componentType": 5126,
      "count": 970,
      "max": [
        1.0,
        1.0,
        1.0
      ],
      "min": [
        -1.0,
        -1.0,
        -1.0
      ],
      "type": "VEC3"
    },
    {
      "bufferView": 3,
      "byteOffset": 36576,
      "componentType": 5126,
      "count": 970,
      "max": [
        1.0,
        1.0,
        1.0,
        1.0
      ],
      "min": [
        -1.0,
        -1.0,
        -1.0,
        -1.0
      ],
      "type": "VEC4"
    },
    {
      "bufferView": 1,
      "byteOffset": 54864,
      "componentType": 5126,
      "count": 970,
      "max": [
        0.8935428261756897,
        0.998046875
      ],
      "min": [
        0.001953125,
        0.001953125
      ],
      "type": "VEC2"
    },
    {
      "bufferView": 1,
      "byteOffset": 62624,
      "componentType": 5126,
      "count": 970,
      "max": [
        0.8935428261756897,
        0.998046875
      ],
      "min": [
        0.001953125,
        0.001953125
      ],
      "type": "VEC2"
    },
    {
      "bufferView": 1,
      "byteOffset": 70384,
      "componentType": 5126,
      "count": 970,
      "max": [
        0.8935428261756897,
        0.998046875
      ],
      "min": [
        0.001953125,
        0.001953125
      ],
      "type": "VEC2"
    },
    {
      "bufferView": 0,
      "byteOffset": 23520,
      "componentType": 5125,
      "count": 1908,
      "type": "SCALAR"
    }
  ],
  "asset": {
    "extras": {
      "author": "Rylae Shylna (https://sketchfab.com/risteralline)",
      "license": "CC-BY-4.0 (http://creativecommons.org/licenses/by/4.0/)",
      "source": "https://sketchfab.com/3d-models/grand-entrance-a-pole-with-a-sign-gold-velour-7bb310edac154c5b9ee9c3d6e41f13e2",
      "title": "Grand entrance, a pole with a sign. Gold, velour"
    },
    "generator": "Sketchfab-16.33.0",
    "version": "2.0"
  },
  "bufferViews": [
    {
      "buffer": 0,
      "byteLength": 31152,
      "name": "floatBufferViews",
      "target": 34963
    },
    {
      "buffer": 0,
      "byteLength": 78144,
      "byteOffset": 31152,
      "byteStride": 8,
      "name": "floatBufferViews",
      "target": 34962
    },
    {
      "buffer": 0,
      "byteLength": 78144,
      "byteOffset": 109296,
      "byteStride": 12,
      "name": "floatBufferViews",
      "target": 34962
    },
    {
      "buffer": 0,
      "byteLength": 52096,
      "byteOffset": 187440,
      "byteStride": 16,
      "name": "floatBufferViews",
      "target": 34962
    }
  ],
  "buffers": [
    {
      "byteLength": 239536,
      "uri": "scene.bin"
    }
  ],
  "images": [
    {
      "uri": "textures/mGrandEntrance_baseColor.png"
    },
    {
      "uri": "textures/mGrandEntrance_metallicRoughness.png"
    },
    {
      "uri": "textures/mGrandEntrance_emissive.png"
    },
    {
      "uri": "textures/mGrandEntrance_normal.png"
    }
  ],
  "materials": [
    {
      "doubleSided": true,
      "emissiveFactor": [
        1.0,
        1.0,
        1.0
      ],
      "emissiveTexture": {
        "index": 2
      },
      "name": "mGrandEntrance",
      "normalTexture": {
        "index": 3
      },
      "occlusionTexture": {
        "index": 1
      },
      "pbrMetallicRoughness": {
        "baseColorTexture": {
          "index": 0
        },
        "metallicRoughnessTexture": {
          "index": 1
        }
      }
    }
  ],
  "meshes": [
    {
      "name": "PolesRope_mGrandEntrance_0",
      "primitives": [
        {
          "attributes": {
            "NORMAL": 1,
            "POSITION": 0,
            "TANGENT": 2,
            "TEXCOORD_0": 3,
            "TEXCOORD_1": 4,
            "TEXCOORD_2": 5
          },
          "indices": 6,
          "material": 0,
          "mode": 4
        }
      ]
    },
    {
      "name": "PoleTableImage_mGrandEntrance_0",
      "primitives": [
        {
          "attributes": {
            "NORMAL": 8,
            "POSITION": 7,
            "TANGENT": 9,
            "TEXCOORD_0": 10,
            "TEXCOORD_1": 11,
            "TEXCOORD_2": 12
          },
          "indices": 13,
          "material": 0,
          "mode": 4
        }
      ]
    },
    {
      "name": "PoleTable_mGrandEntrance_0",
      "primitives": [
        {
          "attributes": {
            "NORMAL": 15,
            "POSITION": 14,
            "TANGENT": 16,
            "TEXCOORD_0": 17,
            "TEXCOORD_1": 18,
            "TEXCOORD_2": 19
          },
          "indices": 20,
          "material": 0,
          "mode": 4
        }
      ]
    }
  ],
  "nodes": [
    {
      "children": [
        1
      ],
      "matrix": [
        1.2963815927505493,
        0.0,
        0.0,
        0.0,
        0.0,
        2.8785453859437855e-16,
        -1.2963815927505493,
        0.0,
        0.0,
        1.2963815927505493,
        2.8785453859437855e-16,
        0.0,
        0.0,
        0.0,
        0.0,
        1.0
      ],
      "name": "Sketchfab_model"
    },
    {
      "children": [
        2
      ],
      "matrix": [
        0.009999999776482582,
        0.0,
        0.0,
        0.0,
        0.0,
        0.0,
        0.009999999776482582,
        0.0,
        0.0,
        -0.009999999776482582,
        0.0,
        0.0,
        0.0,
        0.0,
        0.0,
        1.0
      ],
      "name": "GrandEntrance_J_low.fbx"
    },
    {
      "children": [
        3,
        5,
        7
      ],
      "name": "RootNode"
    },
    {
      "children": [
        4
      ],
      "matrix": [
        -99.99999999999885,
        1.2246465878873718e-14,
        -1.5099579909783704e-05,
        0.0,
        -1.509957990978366e-05,
        7.549789993177569e-06,
        99.99999999999856,
        0.0,
        1.1522330358069753e-12,
        99.9999999999997,
        -7.549789970973109e-06,
        0.0,
        65.90621185302734,
        66.94803619384766,
        0.004073976073414087,
        1.0
      ],
      "name": "PolesRope"
    },
    {
      "mesh": 0,
      "name": "PolesRope_mGrandEntrance_0"
    },
    {
      "children": [
        6
      ],
      "matrix": [
        100.0,
        0.0,
        0.0,
        0.0,
        -0.0,
        -1.629206793918314e-05,
        -99.99999999999868,
        0.0,
        0.0,
        99.99999999999868,
        -1.629206793918314e-05,
        0.0,
        -60.54864501953125,
        90.28795623779297,
        -3.706827402114868,
        1.0
      ],
      "name": "PoleTableImage"
    },
    {
      "mesh": 1,
      "name": "PoleTableImage_mGrandEntrance_0"
    },
    {
      "children": [
        8
      ],
      "matrix": [
        -99.99999999999885,
        1.2246465878873718e-14,
        -1.5099579909783704e-05,
        0.0,
        -1.509957990978366e-05,
        7.549789993177569e-06,
        99.99999999999856,
        0.0,
        1.1522330358069753e-12,
        99.9999999999997,
        -7.549789970973109e-06,
        0.0,
        -60.55175018310547,
        68.39176940917969,
        -1.3027993440628052,
        1.0
      ],
      "name": "PoleTable"
    },
    {
      "mesh": 2,
      "name": "PoleTable_mGrandEntrance_0"
    }
  ],
  "samplers": [
    {
      "magFilter": 9729,
      "minFilter": 9987,
      "wrapS": 10497,
      "wrapT": 10497
    }
  ],
  "scene": 0,
  "scenes": [
    {
      "name": "Sketchfab_Scene",
      "nodes": [
        0
      ]
    }
  ],
  "textures": [
    {
      "sampler": 0,
      "source": 0
    },
    {
      "sampler": 0,
      "source": 1
    },
    {
      "sampler": 0,
      "source": 2
    },
    {
      "sampler": 0,
      "source": 3
    }
  ]
}
